# xmcd CD database file
#
# Track frame offsets:
#	150
#	40182
#	83433
#	108001
#	136793
#	163412
#	184242
#	214911
#	242136
#	265568
#
# Disc length: 3606 seconds
#
# Revision: 0
# Processed by: cddbd v1.5.1PL2 Copyright (c) Steve Scherf et al.
# Submitted via: CDex 1.60beta1-cs1
#
DISCID=7e0e140a
DTITLE=Jean-Marc Staehle - Softness Navy
DYEAR=1900
DGENRE=New Age
TTITLE0=Sets of waves
TTITLE1=Softness of the Paddle
TTITLE2=Light on the waves
TTITLE3=Rocked by the sea
TTITLE4=Joy and hope
TTITLE5=Gilded paddle
TTITLE6=Radiant horizon
TTITLE7=The caress of the breeze
TTITLE8=Carried by the floods
TTITLE9=Song of the waves
EXTD=
EXTT0=
EXTT1=
EXTT2=
EXTT3=
EXTT4=
EXTT5=
EXTT6=
EXTT7=
EXTT8=
EXTT9=
PLAYORDER=
